<?xml version="1.0" encoding="UTF-8" standalone="no"?><svg xmlns="http://www.w3.org/2000/svg" xmlns:xlink="http://www.w3.org/1999/xlink" contentScriptType="application/ecmascript" contentStyleType="text/css" height="394px" preserveAspectRatio="none" style="width:547px;height:394px;" version="1.1" viewBox="0 0 547 394" width="547px" zoomAndPan="magnify"><defs><filter height="300%" id="f15ukblsmhz0kq" width="300%" x="-1" y="-1"><feGaussianBlur result="blurOut" stdDeviation="2.0"/><feColorMatrix in="blurOut" result="blurOut2" type="matrix" values="0 0 0 0 0 0 0 0 0 0 0 0 0 0 0 0 0 0 .4 0"/><feOffset dx="4.0" dy="4.0" in="blurOut2" result="blurOut3"/><feBlend in="SourceGraphic" in2="blurOut3" mode="normal"/></filter></defs><g><!--MD5=[503130fef546779811418e5f39df21ee]
entity sources--><path d="M46.1469,343.4238 C48.7905,335.9491 55.0376,334.3769 60.443,340.5255 C63.5731,334.5731 67.9151,333.0729 72.9172,338.4675 C74.639,331.3307 79.6807,331.3409 84.5189,335.1706 C90.0775,330.7023 93.8968,331.3078 96.0471,338.5312 C101.6831,333.9264 106.0334,335.6792 108.6987,341.9781 C113.4932,337.0769 118.6821,336.1329 121.9799,343.5869 C132.18,345.3001 134.2897,350.6393 129.4002,359.4229 C135.1759,368.842 133.1763,374.945 121.6689,376.5728 C118.3611,382.833 113.9395,383.8991 109.1394,378.1267 C106.5714,383.8171 101.8267,384.5938 97.3449,380.4135 C93.9894,387.7256 89.1132,386.8556 84.5114,381.696 C80.2772,387.4326 74.3009,387.2132 71.8811,379.9352 C66.5245,384.6731 62.2954,384.399 58.5119,378.0399 C54.7656,382.1238 49.269,381.8715 47.294,376.0367 C38.8096,372.9924 38.5416,365.8256 44.91,360.5019 C35.9499,355.4451 38.9934,347.3136 46.1469,343.4238 " fill="#F0FFFF" filter="url(#f15ukblsmhz0kq)" style="stroke:#000000;stroke-width:1.5;"/><text fill="#000000" font-family="Segoe UI" font-size="14" lengthAdjust="spacingAndGlyphs" textLength="61" x="53" y="365.1074">Map Data</text><!--MD5=[877d4baf125c90958c61f648c18389b1]
entity other_sources--><path d="M204.066,218.08 C206.988,212.8915 212.488,211.4129 215.9604,217.4995 C219.3066,210.8426 224.6429,209.4541 229.7389,215.6191 C232.9098,210.9165 236.7841,211.0553 239.9734,215.5987 C244.1935,209.1562 248.3007,207.9733 253.2189,214.9075 C255.5446,208.7137 260.3373,209.4092 264.0834,213.3909 C268.2464,207.4646 274.462,206.2454 278.2933,213.7422 C281.0118,208.1563 284.5396,207.3328 288.7783,212.2203 C294.389,206.1014 298.55,207.9099 301.7126,214.6775 C305.2443,208.9816 310.1824,207.5637 314.2006,214.1842 C317.735,208.8061 322.3029,209.5056 325.4784,214.5717 C330.1281,208.3668 335.2694,208.9792 338.2471,216.1659 C341.1833,210.5274 346.6649,210.1628 350.2134,215.4982 C355.0192,208.3282 360.3404,209.3518 364.0036,216.5916 C367.1131,211.7966 371.8503,211.4153 374.3195,217.2151 C381.4892,219.9247 381.0008,226.3652 375.815,230.4688 C382.759,233.8255 381.7928,239.484 376.2676,243.2811 C382.5297,247.0739 383.2759,251.6537 377.0333,256.1884 C381.9718,261.0151 383.0082,265.4653 375.7239,269.0475 C372.0591,274.4815 365.9727,273.762 362.9601,268.2845 C359.1722,274.3164 354.5736,274.5001 350.4041,268.689 C347.7656,274.8618 341.6973,274.3078 338.3021,269.5249 C334.9415,275.6785 329.9736,275.4342 326.1693,269.9891 C322.3397,275.1113 318.9426,274.6869 315.0198,270.0962 C312.611,277.2204 307.3978,278.26 302.7079,272.2315 C298.6308,278.1217 293.8971,277.966 289.6201,272.4611 C285.9168,278.7978 280.5888,277.1406 277.424,271.8941 C273.5933,277.4566 268.1684,277.6371 265.0196,271.1899 C261.5135,277.6013 255.3026,277.8036 251.9458,271.0417 C248.4188,275.0949 243.9722,275.4828 241.2225,270.1533 C237.6017,277.0283 232.1755,276.2398 228.426,270.2817 C224.6531,275.6908 219.5175,276.3245 216.4902,269.5513 C212.1184,275.0524 205.9905,274.9037 203.6774,267.5063 C196.448,265.3225 194.837,260.8435 200.0198,255.023 C193.8245,251.7827 192.5501,246.0782 198.8848,241.7652 C193.8831,237.3667 195.3244,233.4706 200.634,230.7025 C196.1791,225.226 197.487,220.5564 204.066,218.08 " fill="#F0FFFF" filter="url(#f15ukblsmhz0kq)" style="stroke:#000000;stroke-width:1.5;"/><text fill="#000000" font-family="Segoe UI" font-size="14" lengthAdjust="spacingAndGlyphs" textLength="104" x="210" y="238.1074">Other Road Data</text><text fill="#000000" font-family="Segoe UI" font-size="14" lengthAdjust="spacingAndGlyphs" textLength="153" x="214" y="256.7285">(Satellite, Streetview, etc.)</text><!--MD5=[7e77cbbc8661586230c3bb19550b16fa]
entity accident_sources--><path d="M425.2988,226.9355 C427.1511,220.254 433.5918,218.1363 438.8224,222.9669 C441.8293,216.7378 445.4845,217.342 449.7963,221.6017 C453.8738,214.1345 457.9381,214.9902 462.9692,220.6444 C465.0948,213.4187 471.7493,212.8818 476.5271,217.6452 C481.0604,212.5005 484.9734,213.5576 487.6169,219.5303 C492.1953,213.3784 496.9628,214.9313 499.9669,221.1074 C505.6113,216.4455 510.6379,217.1816 512.9713,224.6554 C516.4902,219.0206 522.4575,219.497 525.6191,225.0591 C537.4396,226.7746 540.4787,233.9261 532.8584,243.3401 C537.5776,251.8549 536.4152,258.3151 525.256,259.2357 C521.1262,264.747 517.4583,265.2158 513.2418,259.327 C511.3229,265.1524 505.9873,267.932 501.1987,262.3589 C498.4745,269.105 492.647,269.2672 488.9206,263.3291 C484.8233,271.0619 480.2215,270.6752 474.8836,264.5893 C470.9883,269.9659 465.4852,268.5463 463.4816,262.6722 C459.5805,267.9166 454.3376,268.4979 450.6375,262.4437 C446.839,267.1906 441.894,267.1659 439.5078,261.0029 C433.5655,266.7798 428.8585,266.8559 425.4677,258.473 C416.5192,256.0556 414.1517,248.7383 421.6202,242.3927 C414.5018,236.375 417.1474,229.3191 425.2988,226.9355 " fill="#F0FFFF" filter="url(#f15ukblsmhz0kq)" style="stroke:#000000;stroke-width:1.5;"/><text fill="#000000" font-family="Segoe UI" font-size="14" lengthAdjust="spacingAndGlyphs" textLength="85" x="432" y="247.1074">Accident Data</text><!--MD5=[81acd59291e311cffba5f5d51ec1cb23]
entity knowns--><rect fill="#00FA9A" filter="url(#f15ukblsmhz0kq)" height="38.6211" style="stroke:#000000;stroke-width:1.5;" width="153" x="7" y="222"/><text fill="#000000" font-family="Segoe UI" font-size="14" lengthAdjust="spacingAndGlyphs" textLength="133" x="17" y="247.1074">Known Road Features</text><!--MD5=[83a8157c84c7fbb70c5b579330f814f1]
entity predictions--><rect fill="#48D1CC" filter="url(#f15ukblsmhz0kq)" height="38.6211" style="stroke:#000000;stroke-width:1.5;" width="170" x="186.5" y="109"/><text fill="#000000" font-family="Segoe UI" font-size="14" lengthAdjust="spacingAndGlyphs" textLength="150" x="196.5" y="134.1074">Predictive Road Features</text><!--MD5=[b8db4f16ae5a93c9199c2f5b1ab86c4f]
entity information--><rect fill="#98FB98" filter="url(#f15ukblsmhz0kq)" height="34.6211" style="stroke:#000000;stroke-width:1.5;" width="193" x="99" y="12.5"/><rect fill="#98FB98" height="34.6211" style="stroke:#000000;stroke-width:1.5;" width="193" x="95" y="8.5"/><text fill="#000000" font-family="Segoe UI" font-size="14" lengthAdjust="spacingAndGlyphs" textLength="177" x="103" y="31.6074">Life-saving Road Information</text><!--MD5=[4b4aa12fd50f56bd13a7a0170aaccc36]
entity dashboard--><rect fill="#87CEEB" filter="url(#f15ukblsmhz0kq)" height="41.6211" style="stroke:#000000;stroke-width:1.5;" width="160" x="327.5" y="7"/><polygon fill="#87CEEB" points="470.5,12,470.5,26,482.5,26,482.5,18,476.5,12,470.5,12" style="stroke:#000000;stroke-width:1.5;"/><line style="stroke:#000000;stroke-width:1.5;" x1="476.5" x2="476.5" y1="12" y2="18"/><line style="stroke:#000000;stroke-width:1.5;" x1="482.5" x2="476.5" y1="18" y2="18"/><text fill="#000000" font-family="Segoe UI" font-size="14" lengthAdjust="spacingAndGlyphs" textLength="130" x="337.5" y="35.1074">Predictive Dashboard</text><!--MD5=[bb6840ae7f846d3dc8be579bb65290f0]
reverse link knowns to sources--><path d="M83.5,266.281 C83.5,286.2663 83.5,314.6893 83.5,334.6844 " fill="none" id="knowns-backto-sources" style="stroke:#A80036;stroke-width:1.0;"/><polygon fill="#A80036" points="83.5,261.137,79.5,270.137,83.5,266.137,87.5,270.137,83.5,261.137" style="stroke:#A80036;stroke-width:1.0;"/><!--MD5=[792cbd7976c47ec8f53b2ab493272954]
reverse link predictions to knowns--><path d="M235.448,150.786 C200.597,171.363 148.321,202.228 115.07,221.86 " fill="none" id="predictions-backto-knowns" style="stroke:#A80036;stroke-width:1.0;"/><polygon fill="#A80036" points="240.033,148.079,230.2492,149.209,235.7271,150.6205,234.3156,156.0985,240.033,148.079" style="stroke:#A80036;stroke-width:1.0;"/><!--MD5=[ee961017aa9dcff1fbc895e8eeef919b]
reverse link predictions to other_sources--><path d="M275.141,153.271 C277.582,169.213 280.829,190.414 283.511,207.923 " fill="none" id="predictions-backto-other_sources" style="stroke:#A80036;stroke-width:1.0;"/><polygon fill="#A80036" points="274.345,148.079,271.7542,157.581,275.1023,153.0213,279.662,156.3694,274.345,148.079" style="stroke:#A80036;stroke-width:1.0;"/><!--MD5=[38625a98faa22d3633818a29bb226359]
reverse link predictions to accident_sources--><path d="M310.033,150.57 C344.595,169.468 395.258,197.17 431.206,216.827 " fill="none" id="predictions-backto-accident_sources" style="stroke:#A80036;stroke-width:1.0;"/><polygon fill="#A80036" points="305.478,148.079,311.456,155.9061,309.8651,150.4776,315.2937,148.8867,305.478,148.079" style="stroke:#A80036;stroke-width:1.0;"/><!--MD5=[e76b40b4e7bc747da4b5dcffbd3346dc]
reverse link information to predictions--><path d="M211.537,51.778 C225.218,69.054 243.795,92.514 256.629,108.721 " fill="none" id="information-backto-predictions" style="stroke:#A80036;stroke-width:1.0;"/><polygon fill="#A80036" points="208.171,47.527,210.6204,57.0664,211.2742,51.4475,216.8932,52.1013,208.171,47.527" style="stroke:#A80036;stroke-width:1.0;"/><!--MD5=[67453be7642ad0c83fb5971c68ea6489]
reverse link information to knowns--><path d="M181.302,52.454 C159.283,94.791 113.321,183.163 93.2399,221.773 " fill="none" id="information-backto-knowns" style="stroke:#A80036;stroke-width:1.0;"/><polygon fill="#A80036" points="183.738,47.769,176.0363,53.9078,181.4308,52.2049,183.1337,57.5993,183.738,47.769" style="stroke:#A80036;stroke-width:1.0;"/><!--MD5=[6d7e1339cacf4dfa558cfb212e24ceda]
link information to dashboard--><path d="M292.141,28 C302.118,28 312.095,28 322.072,28 " fill="none" id="information-to-dashboard" style="stroke:#A80036;stroke-width:1.0;"/><polygon fill="#A80036" points="327.289,28,318.289,24,322.289,28,318.289,32,327.289,28" style="stroke:#A80036;stroke-width:1.0;"/><!--MD5=[8fc17f8f2d4a178183f45aae64cdd8c2]
@startuml
skinparam defaultFontName Segoe UI
cloud "Map Data" as sources #azure
cloud "Other Road Data \n (Satellite, Streetview, etc.)" as other_sources #azure
cloud "Accident Data" as accident_sources #azure
rectangle "Known Road Features" as knowns #mediumspringgreen
rectangle "Predictive Road Features" as predictions #mediumturquoise
collections "Life-saving Road Information" as information #palegreen
artifact "Predictive Dashboard" as dashboard #skyblue

sources -up-> knowns
knowns -up-> predictions
other_sources -up-> predictions
accident_sources -up-> predictions
predictions -up-> information
knowns -up-> information
information -right-> dashboard
@enduml

PlantUML version 1.2020.21(Mon Nov 30 09:40:11 MST 2020)
(GPL source distribution)
Java Runtime: OpenJDK Runtime Environment
JVM: OpenJDK 64-Bit Server VM
Default Encoding: Cp1252
Language: en
Country: US
--></g></svg>